<?xml version="1.0" standalone="no"?><!DOCTYPE svg PUBLIC "-//W3C//DTD SVG 1.1//EN" "http://www.w3.org/Graphics/SVG/1.1/DTD/svg11.dtd"><svg t="1688711185584" class="icon" viewBox="0 0 1024 1024" version="1.1" xmlns="http://www.w3.org/2000/svg" p-id="3554" id="mx_n_1688711185585" xmlns:xlink="http://www.w3.org/1999/xlink" width="200" height="200"><path d="M533.333333 64h12.8c4.266667 0 8.533333 4.266667 8.533334 8.533333V85.333333c-21.333333 29.866667-38.4 55.466667-42.666667 64-42.666667 102.4-21.333333 217.6 55.466667 298.666667s192 106.666667 294.4 68.266667l12.8-4.266667c17.066667-8.533333 34.133333-17.066667 59.733333-34.133333 4.266667-4.266667 12.8-4.266667 17.066667 0 4.266667 4.266667 8.533333 8.533333 8.533333 17.066666v64c-29.866667 204.8-209.066667 362.666667-422.4 362.666667-234.666667 0-426.666667-192-426.666667-426.666667 0-209.066667 153.6-384 354.133334-418.133333l12.8-4.266667h17.066666c8.533333-8.533333 25.6-8.533333 38.4-8.533333zM413.866667 170.666667l-4.266667 4.266666C256 234.666667 166.4 392.533333 196.266667 554.666667s170.666667 277.333333 337.066666 277.333333c145.066667 0 273.066667-89.6 320-221.866667-123.733333 29.866667-251.733333-4.266667-341.333333-93.866666S384 294.4 413.866667 170.666667z" fill="#C3D0E6" p-id="3555"></path><path d="M533.333333 64h12.8c4.266667 0 8.533333 4.266667 8.533334 8.533333V85.333333c-21.333333 29.866667-38.4 55.466667-42.666667 64-42.666667 102.4-21.333333 217.6 55.466667 298.666667s192 106.666667 294.4 68.266667l12.8-4.266667c17.066667-8.533333 34.133333-17.066667 59.733333-34.133333 4.266667-4.266667 12.8-4.266667 17.066667 0 4.266667 4.266667 8.533333 8.533333 8.533333 17.066666v64c-29.866667 204.8-209.066667 362.666667-422.4 362.666667-234.666667 0-426.666667-192-426.666667-426.666667 0-209.066667 153.6-384 354.133334-418.133333l12.8-4.266667h17.066666c8.533333-8.533333 25.6-8.533333 38.4-8.533333zM413.866667 170.666667l-4.266667 4.266666C256 234.666667 166.4 392.533333 196.266667 554.666667s170.666667 277.333333 337.066666 277.333333c145.066667 0 273.066667-89.6 320-221.866667-123.733333 29.866667-251.733333-4.266667-341.333333-93.866666S384 294.4 413.866667 170.666667z" p-id="3556"></path></svg>
