<svg class="animated" id="freepik_stories-404-error" xmlns="http://www.w3.org/2000/svg" xmlns:xlink="http://www.w3.org/1999/xlink" viewBox="0 0 500 500" version="1.1" xmlns:svgjs="http://svgjs.com/svgjs"><style>svg#freepik_stories-404-error:not(.animated) .animable {opacity: 0;}svg#freepik_stories-404-error.animated #freepik--Hole--inject-15 {animation: 1s 1 forwards cubic-bezier(.36,-0.01,.5,1.38) zoomIn;animation-delay: 0s;}svg#freepik_stories-404-error.animated #freepik--Clouds--inject-15 {animation: 1s 1 forwards cubic-bezier(.36,-0.01,.5,1.38) lightSpeedRight;animation-delay: 0s;}svg#freepik_stories-404-error.animated #freepik--Character--inject-15 {animation: 1s 1 forwards cubic-bezier(.36,-0.01,.5,1.38) slideLeft;animation-delay: 0s;}svg#freepik_stories-404-error.animated #freepik--Text--inject-15 {animation: 1s 1 forwards cubic-bezier(.36,-0.01,.5,1.38) slideDown;animation-delay: 0s;}            @keyframes zoomIn {                0% {                    opacity: 0;                    transform: scale(0.5);                }                100% {                    opacity: 1;                    transform: scale(1);                }            }                    @keyframes lightSpeedRight {              from {                transform: translate3d(50%, 0, 0) skewX(-20deg);                opacity: 0;              }              60% {                transform: skewX(10deg);                opacity: 1;              }              80% {                transform: skewX(-2deg);              }              to {                opacity: 1;                transform: translate3d(0, 0, 0);              }            }                    @keyframes slideLeft {                0% {                    opacity: 0;                    transform: translateX(-30px);                }                100% {                    opacity: 1;                    transform: translateX(0);                }            }                    @keyframes slideDown {                0% {                    opacity: 0;                    transform: translateY(-30px);                }                100% {                    opacity: 1;                    transform: translateY(0);                }            }        </style><g id="freepik--background-simple--inject-15" class="animable" style="transform-origin: 247.503px 244.785px;"><path d="M44.31,258.15s2.35,73,63.27,121.6,145.32,52.12,213.65,56.74S442,402.43,450,344s-44.3-75.63-72.63-142.2-25.81-88.44-85.75-129.38S137.86,56.57,88.7,126.71,44.31,258.15,44.31,258.15Z" style="fill: #00A7E6; transform-origin: 247.503px 244.785px;" id="el72t27lduasb" class="animable"></path><g id="eliftsmutepe"><path d="M44.31,258.15s2.35,73,63.27,121.6,145.32,52.12,213.65,56.74S442,402.43,450,344s-44.3-75.63-72.63-142.2-25.81-88.44-85.75-129.38S137.86,56.57,88.7,126.71,44.31,258.15,44.31,258.15Z" style="fill: rgb(255, 255, 255); opacity: 0.7; transform-origin: 247.503px 244.785px;" class="animable" id="el68hcg5irrw5"></path></g></g><g id="freepik--Hole--inject-15" class="animable" style="transform-origin: 341.485px 385.785px;"><ellipse cx="341.49" cy="385.79" rx="72.2" ry="21.42" style="fill: rgb(38, 50, 56); stroke: rgb(38, 50, 56); stroke-linecap: round; stroke-linejoin: round; stroke-width: 1.193px; transform-origin: 341.49px 385.79px;" id="eld3p7vrzesq" class="animable"></ellipse><path d="M341.49,374.22c34.15,0,62.75,7,70.26,16.49a8,8,0,0,0,1.94-4.92c0-11.84-32.33-21.43-72.2-21.43s-72.21,9.59-72.21,21.43a8,8,0,0,0,1.94,4.92C278.73,381.26,307.33,374.22,341.49,374.22Z" style="fill: rgb(255, 255, 255); stroke: rgb(38, 50, 56); stroke-linecap: round; stroke-linejoin: round; stroke-width: 1.193px; transform-origin: 341.485px 377.535px;" id="elsxk1vzy0wcf" class="animable"></path><path d="M331.63,404.52c-24.12-1.09-42.32-6-42.32-12a3.33,3.33,0,0,1,.59-1.83" style="fill: none; stroke: rgb(255, 255, 255); stroke-linecap: round; stroke-linejoin: round; stroke-width: 1.193px; transform-origin: 310.47px 397.605px;" id="elf746j63vedh" class="animable"></path><path d="M387.6,386.68c4.13,1.75,6.49,3.75,6.49,5.88,0,6.73-23.46,12.18-52.39,12.18h-1.25" style="fill: none; stroke: rgb(255, 255, 255); stroke-linecap: round; stroke-linejoin: round; stroke-width: 1.193px; transform-origin: 367.27px 395.71px;" id="elgfqjbpzty0a" class="animable"></path><path d="M296.36,386.45c9.07-3.63,26-6.08,45.34-6.08a184.43,184.43,0,0,1,32.84,2.69" style="fill: none; stroke: rgb(255, 255, 255); stroke-linecap: round; stroke-linejoin: round; stroke-width: 1.193px; transform-origin: 335.45px 383.407px;" id="elsdb91mdw9k" class="animable"></path><path d="M330.94,396.74c-6.11-.85-10.2-2.4-10.2-4.18,0-2.69,9.39-4.87,21-4.87s20.95,2.18,20.95,4.87c0,2.31-6.9,4.24-16.16,4.74" style="fill: none; stroke: rgb(255, 255, 255); stroke-linecap: round; stroke-linejoin: round; stroke-width: 1.193px; transform-origin: 341.715px 392.495px;" id="els3jyihk9qxa" class="animable"></path></g><g id="freepik--Landscape--inject-15" class="animable" style="transform-origin: 245.315px 277.033px;"><path d="M51.52,299.68c31.49-8.95,97.75-26.61,134.32-27.94C235,270,318,305.68,369.82,311.93s86.64,4.47,86.64,4.47" style="fill: none; stroke: rgb(38, 50, 56); stroke-linecap: round; stroke-linejoin: round; stroke-width: 1.193px; transform-origin: 253.99px 294.156px;" id="el5alw1unp39s" class="animable"></path><path d="M34,304.79s2.72-.83,7.49-2.22" style="fill: none; stroke: rgb(38, 50, 56); stroke-linecap: round; stroke-linejoin: round; stroke-width: 1.193px; transform-origin: 37.745px 303.68px;" id="elfm16g6v3qm9" class="animable"></path><path d="M442.47,249.12a228.34,228.34,0,0,0-55.3-5.23c-38.42,1.29-80,6.37-131.41,13s-124.62-30-174.4-16.41-46,17.68-46,17.68" style="fill: none; stroke: rgb(38, 50, 56); stroke-linecap: round; stroke-linejoin: round; stroke-width: 1.193px; transform-origin: 238.882px 247.795px;" id="elxcnwkpyiae" class="animable"></path><path d="M456.63,252.8s-1.94-.64-5.45-1.57" style="fill: none; stroke: rgb(38, 50, 56); stroke-linecap: round; stroke-linejoin: round; stroke-width: 1.193px; transform-origin: 453.905px 252.015px;" id="el0rgwnpuek8q9" class="animable"></path></g><g id="freepik--Clouds--inject-15" class="animable" style="transform-origin: 320.68px 155.815px;"><path d="M364.45,158.35a10.35,10.35,0,0,0-20.1,0Z" style="fill: none; stroke: rgb(38, 50, 56); stroke-linecap: round; stroke-linejoin: round; stroke-width: 1.193px; transform-origin: 354.4px 154.412px;" id="eleuk42x1w76m" class="animable"></path><path d="M466,158.35a12.81,12.81,0,0,0-11-9.77A30,30,0,0,0,425.42,113a30.08,30.08,0,0,0-29.61,24.79,19.22,19.22,0,0,0-31.06,15.16,19.41,19.41,0,0,0,.79,5.42Z" style="fill: none; stroke: rgb(38, 50, 56); stroke-linecap: round; stroke-linejoin: round; stroke-width: 1.193px; transform-origin: 415.375px 135.685px;" id="elmkh46eyyu8j" class="animable"></path><path d="M185.57,182.49a5.25,5.25,0,0,0-10.21,0Z" style="fill: none; stroke: rgb(38, 50, 56); stroke-linecap: round; stroke-linejoin: round; stroke-width: 1.193px; transform-origin: 180.465px 180.478px;" id="eli4k046kr6vc" class="animable"></path><path d="M237.12,182.49a6.52,6.52,0,0,0-5.59-5,15.27,15.27,0,1,0-30-5.48,9.76,9.76,0,0,0-15.77,7.69,10.06,10.06,0,0,0,.4,2.76Z" style="fill: none; stroke: rgb(38, 50, 56); stroke-linecap: round; stroke-linejoin: round; stroke-width: 1.193px; transform-origin: 211.44px 170.584px;" id="el87i2d45ucae" class="animable"></path><path d="M231.93,198.63a3.31,3.31,0,0,0-6.44,0Z" style="fill: none; stroke: rgb(38, 50, 56); stroke-linecap: round; stroke-linejoin: round; stroke-width: 1.193px; transform-origin: 228.71px 197.358px;" id="eloi1dpsmxufl" class="animable"></path><path d="M264.47,198.63a4.1,4.1,0,0,0-3.53-3.13,9.48,9.48,0,0,0,.16-1.77A9.64,9.64,0,0,0,242,192a6.16,6.16,0,0,0-9.95,4.86,6.25,6.25,0,0,0,.25,1.74Z" style="fill: none; stroke: rgb(38, 50, 56); stroke-linecap: round; stroke-linejoin: round; stroke-width: 1.193px; transform-origin: 248.26px 191.42px;" id="el7dtmab4rnh" class="animable"></path></g><g id="freepik--Character--inject-15" class="animable" style="transform-origin: 237.675px 286.678px;"><path d="M162.65,313.83a1.89,1.89,0,0,1-1-.27,2,2,0,0,1-.7-2.67c.49-.86,124.13-135.69,180.7-185.13a1,1,0,0,1,1.36.1,1,1,0,0,1-.1,1.38C286.62,176.47,164.81,312,164.32,312.85A1.92,1.92,0,0,1,162.65,313.83Z" style="fill: rgb(38, 50, 56); transform-origin: 251.97px 219.685px;" id="elf2r9yb4i8lr" class="animable"></path><path d="M169.48,287s6.13-6.54,9.81-6.54,10.63,6.13,10.22,9.4-6.54.41-6.54.41-5.73,7.77-11.45,6.54S169.48,287,169.48,287Z" style="fill: #00A7E6; stroke: rgb(38, 50, 56); stroke-linecap: round; stroke-linejoin: round; stroke-width: 1.193px; transform-origin: 178.921px 288.701px;" id="el8sxockx9458" class="animable"></path><path d="M183,290.25s3.75,2.6,4.08,4.43-4.16,7-9.15,8.16-7.66-1.67-6.16-4.33S179.22,290.49,183,290.25Z" style="fill: #00A7E6; stroke: rgb(38, 50, 56); stroke-linecap: round; stroke-linejoin: round; stroke-width: 1.193px; transform-origin: 179.225px 296.679px;" id="elo2dyf7cis8" class="animable"></path><path d="M337,266.56V131.27s-2.73,9.79-2.73,10.5" style="fill: none; stroke: rgb(38, 50, 56); stroke-linecap: round; stroke-linejoin: round; stroke-width: 1.193px; transform-origin: 335.635px 198.915px;" id="ely8sxi544ni" class="animable"></path><rect x="289.68" y="273.69" width="103.74" height="83.12" style="fill: #00A7E6; stroke: rgb(38, 50, 56); stroke-linecap: round; stroke-linejoin: round; stroke-width: 1.193px; transform-origin: 341.55px 315.25px;" id="el3vquq161rb" class="animable"></rect><path d="M338.48,273.34v-4.76a1.19,1.19,0,0,0-2.38,0v4.76Z" style="fill: rgb(38, 50, 56); transform-origin: 337.29px 270.365px;" id="elcqtk7m62rmd" class="animable"></path><path d="M348,261.76l0,.24a1.15,1.15,0,0,0-1-.61,1.2,1.2,0,0,0-1.2,1.2V275.3a3.67,3.67,0,0,1-3.66,3.67,3.57,3.57,0,0,1-1.46-.31,2,2,0,0,0,.3,2.58,6.34,6.34,0,0,0,1.16.11,6.05,6.05,0,0,0,6.05-6.05v-5.89h2.74Z" style="fill: rgb(38, 50, 56); transform-origin: 345.635px 271.37px;" id="elh0gyb7drg5u" class="animable"></path><path d="M337.1,130s2.12-7.53.24-6.83S337.1,130,337.1,130Z" style="fill: none; stroke: rgb(38, 50, 56); stroke-linecap: round; stroke-linejoin: round; stroke-width: 1.193px; transform-origin: 337.277px 126.562px;" id="elhfuceqr5m6q" class="animable"></path><path d="M337.1,130s-8-2.83-7.29-.24S337.1,130,337.1,130Z" style="fill: none; stroke: rgb(38, 50, 56); stroke-linecap: round; stroke-linejoin: round; stroke-width: 1.193px; transform-origin: 333.433px 129.822px;" id="el942mt213ce9" class="animable"></path><path d="M164.59,195.63s-9.87-5.53-29.23-2.76-23.05,18.73-19.89,35.32,21.47,30.64,24.24,29.46-.79-38.32,5.53-45.43,26.86-5.92,28-11.45S164.59,195.63,164.59,195.63Z" style="fill: rgb(38, 50, 56); stroke: rgb(38, 50, 56); stroke-linecap: round; stroke-linejoin: round; stroke-width: 1.193px; transform-origin: 143.899px 224.906px;" id="elrf9tivr75p" class="animable"></path><path d="M130.18,205.48l2,13.07s-12.4,33.85-10.39,38.55,20.77,6.36,20.77,6.36,30.5,3.69,39.55,0,4.36-14.41,3.35-17.42-6.7-27.15-6.7-27.15,2-5.7,2-8.71-.34-11.4-1.68-13.41-24.8-4.36-35.19-2.68S128.84,198.45,130.18,205.48Z" style="fill: rgb(117, 117, 117); stroke: rgb(38, 50, 56); stroke-linecap: round; stroke-linejoin: round; stroke-width: 1.193px; transform-origin: 154.572px 229.308px;" id="ellkj5p75id8m" class="animable"></path><path d="M135.55,220.57s-.34,29.15,1.34,34.85,8.38,12.4,22.45,10.72,15.42-15.08,15.42-15.08l-1-31.16Z" style="fill: rgb(255, 255, 255); stroke: rgb(38, 50, 56); stroke-linecap: round; stroke-linejoin: round; stroke-width: 1.193px; transform-origin: 155.141px 243.151px;" id="elxo4mjl52w4" class="animable"></path><path d="M159.68,241.51a2.52,2.52,0,1,1-2.52-2.51A2.51,2.51,0,0,1,159.68,241.51Z" style="fill: none; stroke: rgb(38, 50, 56); stroke-miterlimit: 10; stroke-width: 1.193px; transform-origin: 157.16px 241.52px;" id="el58t594fvyfx" class="animable"></path><path d="M159.34,252.07a1.68,1.68,0,1,1-1.67-1.68A1.67,1.67,0,0,1,159.34,252.07Z" style="fill: rgb(38, 50, 56); transform-origin: 157.66px 252.07px;" id="elqauy51ka57" class="animable"></path><path d="M149.22,230.76c1.07,1.16,1.44,2.55.84,3.12s-2,.09-3.05-1.06-1.45-2.54-.84-3.11S148.15,229.61,149.22,230.76Z" style="fill: rgb(38, 50, 56); transform-origin: 148.115px 231.794px;" id="elhay65tj9fda" class="animable"></path><path d="M162.83,230.76c-1.07,1.16-1.45,2.55-.84,3.12s2,.09,3-1.06,1.45-2.54.84-3.11S163.9,229.61,162.83,230.76Z" style="fill: rgb(38, 50, 56); transform-origin: 163.903px 231.794px;" id="el4vd5wwm68v7" class="animable"></path><path d="M142.06,226.81a6.4,6.4,0,0,1,7-2.58" style="fill: none; stroke: rgb(38, 50, 56); stroke-linecap: round; stroke-linejoin: round; stroke-width: 1.193px; transform-origin: 145.56px 225.405px;" id="elymm056uvrd" class="animable"></path><path d="M162.3,224.6s4.78-1.47,6.26,2.58" style="fill: none; stroke: rgb(38, 50, 56); stroke-linecap: round; stroke-linejoin: round; stroke-width: 1.193px; transform-origin: 165.43px 225.76px;" id="el0sai495wz6e" class="animable"></path><path d="M178.44,411.62s5.27-3.16,8.19-4.4a8,8,0,0,1,.84-.33c2.58-.86,9.89-.43,16.76-4.73s3.44-9.46-1.72-10.75-10.74-3-10.74-3l-1.29-20.21s-15.48,4.3-20.64,6.45-2.15,32.67-1.72,35.25S168.55,414.2,178.44,411.62Z" style="fill: rgb(38, 50, 56); stroke: rgb(38, 50, 56); stroke-linecap: round; stroke-linejoin: round; stroke-width: 1.193px; transform-origin: 187.468px 390.548px;" id="elfrb3r4tysof" class="animable"></path><path d="M195.64,402.16c-9,1.72-9,3.44-18.92,5.16a38.38,38.38,0,0,1-8.83.72c.1.92.18,1.57.23,1.86.43,2.58.43,4.3,10.32,1.72,0,0,5.27-3.16,8.19-4.4a8,8,0,0,1,.84-.33c2.58-.86,9.89-.43,16.76-4.73,2.21-1.37,3.34-2.84,3.71-4.24A51.56,51.56,0,0,1,195.64,402.16Z" style="fill: rgb(255, 255, 255); stroke: rgb(38, 50, 56); stroke-linecap: round; stroke-linejoin: round; stroke-width: 1.193px; transform-origin: 187.915px 405.408px;" id="elu3eqs0p13sn" class="animable"></path><path d="M199.22,391.15s-.33,23.46-1,28.48.33,11.4,8,11.4,22.79-5,28.15-6,14.08-3.36,17.76-11.73-18.76-7.38-18.76-7.38l1.34-17.09S211.62,393.49,199.22,391.15Z" style="fill: rgb(38, 50, 56); stroke: rgb(38, 50, 56); stroke-linecap: round; stroke-linejoin: round; stroke-width: 1.193px; transform-origin: 225.292px 409.93px;" id="el8n6ldx7ofbk" class="animable"></path><path d="M252.17,413.27a3.74,3.74,0,0,0,.28-2.63,21,21,0,0,1-9,7c-8,3.35-23.13,7-34.52,8.72-5.21.76-8.51-.09-10.58-1.23.74,3.25,2.91,5.92,7.9,5.92,7.71,0,22.79-5,28.15-6S248.49,421.64,252.17,413.27Z" style="fill: rgb(255, 255, 255); stroke: rgb(38, 50, 56); stroke-linecap: round; stroke-linejoin: round; stroke-width: 1.193px; transform-origin: 225.461px 420.845px;" id="el2dypupn3d7y" class="animable"></path><path d="M233.41,405.89s1.67,5.7-3,9.39" style="fill: none; stroke: rgb(255, 255, 255); stroke-linecap: round; stroke-linejoin: round; stroke-width: 1.193px; transform-origin: 232.055px 410.585px;" id="elzn0kdtan3kf" class="animable"></path><path d="M196.88,378.75s-.52,10.19.05,12.23c2.14,7.74,2.82,5.93,18.91,5.59s22.59-6.76,24.27-10.78,0-12.74-.67-15.76-6-4-8.05-3.68S197.88,375.4,196.88,378.75Z" style="fill: rgb(117, 117, 117); stroke: rgb(38, 50, 56); stroke-linecap: round; stroke-linejoin: round; stroke-width: 1.193px; transform-origin: 218.749px 381.644px;" id="elmfqez5lf5c" class="animable"></path><path d="M86.28,404.22v22.52A4.84,4.84,0,0,0,88.9,431l36.2,18.69a4.81,4.81,0,0,0,4.19.12l53.33-20.33a4.84,4.84,0,0,0,2.86-4.41V397.85l-61,18.43Z" style="fill: #00A7E6; transform-origin: 135.88px 424.041px;" id="ell8en58wm1vq" class="animable"></path><g style="clip-path: url(&quot;#freepik--clip-path--inject-15&quot;); transform-origin: 106.725px 427.225px;" id="el0v9di83xa02s" class="animable"><g id="elsht0iqdqg1g"><path d="M127.17,415.47l-2.68.81L86.28,404.22v22.52A4.84,4.84,0,0,0,88.9,431l36.2,18.69a4.76,4.76,0,0,0,2.07.54Z" style="opacity: 0.18; transform-origin: 106.725px 427.225px;" class="animable" id="eli3ap867dszm"></path></g></g><path d="M86.28,404.22v22.52A4.84,4.84,0,0,0,88.9,431l36.2,18.69a4.81,4.81,0,0,0,4.19.12l53.33-20.33a4.84,4.84,0,0,0,2.86-4.41V397.85l-61,18.43Z" style="fill: none; stroke: rgb(38, 50, 56); stroke-linecap: round; stroke-linejoin: round; stroke-width: 1.193px; transform-origin: 135.88px 424.041px;" id="elihkgqqo5f3s" class="animable"></path><path d="M142,366.2,83.5,385a2.26,2.26,0,0,0-1.57,2.16v16.68a2.27,2.27,0,0,0,1.29,2L124,425.25a2.27,2.27,0,0,0,1.77.08L187,402.42a2.27,2.27,0,0,0,1.48-2.12l.11-15.65a2.29,2.29,0,0,0-1.79-2.22l-43.64-16.29A2.36,2.36,0,0,0,142,366.2Z" style="fill: rgb(255, 255, 255); transform-origin: 135.26px 395.783px;" id="el333y31062ci" class="animable"></path><g style="clip-path: url(&quot;#freepik--clip-path-2--inject-15&quot;); transform-origin: 135.26px 404.335px;" id="elkk3nmq02lzp" class="animable"><path d="M123.93,425.24h0a2.27,2.27,0,0,0,1.77.08L187,402.42a2.27,2.27,0,0,0,1.48-2.12l.11-15.65a2.2,2.2,0,0,0-.54-1.45l-63.25,23.36Z" style="fill: #00A7E6; transform-origin: 156.26px 404.331px;" id="el1leqmkdbt8j" class="animable"></path><g id="elslflte3f88h"><path d="M123.93,425.24h0a2.27,2.27,0,0,0,1.77.08L187,402.42a2.27,2.27,0,0,0,1.48-2.12l.11-15.65a2.2,2.2,0,0,0-.54-1.45l-63.25,23.36Z" style="fill: rgb(255, 255, 255); opacity: 0.5; transform-origin: 156.26px 404.331px;" class="animable" id="elh7lu9ikj81q"></path></g><path d="M81.93,387.11v16.68a2.27,2.27,0,0,0,1.29,2L124,425.25a2.24,2.24,0,0,0,.87.22V406.56L82,386.72A1.67,1.67,0,0,0,81.93,387.11Z" style="fill: #00A7E6; transform-origin: 103.4px 406.095px;" id="el3hh3b8dgyfj" class="animable"></path></g><path d="M142,366.2,83.5,385a2.26,2.26,0,0,0-1.57,2.16v16.68a2.27,2.27,0,0,0,1.29,2L124,425.25a2.27,2.27,0,0,0,1.77.08L187,402.42a2.27,2.27,0,0,0,1.48-2.12l.11-15.65a2.29,2.29,0,0,0-1.79-2.22l-43.64-16.29A2.36,2.36,0,0,0,142,366.2Z" style="fill: none; stroke: rgb(38, 50, 56); stroke-linecap: round; stroke-linejoin: round; stroke-width: 1.193px; transform-origin: 135.26px 395.783px;" id="el43apkhrdgej" class="animable"></path><path d="M222.35,335.52s7.7,3.68,11.73,11.06,1,21.44-1.35,25.8-18.09,6.37-23.45,6.37-6.37-.67-6.37-.67-17.09,3.35-27.82,5.36-8-23.12-4.69-34.52,22.12-17.09,29.83-17.09S222.35,335.52,222.35,335.52Z" style="fill: rgb(38, 50, 56); stroke: rgb(38, 50, 56); stroke-linecap: round; stroke-linejoin: round; stroke-width: 1.193px; transform-origin: 201.751px 357.692px;" id="elaqhq05fv7vn" class="animable"></path><path d="M202.91,378.08s14.41-5,20.44-17.76" style="fill: none; stroke: rgb(255, 255, 255); stroke-linecap: round; stroke-linejoin: round; stroke-width: 1.193px; transform-origin: 213.13px 369.2px;" id="elvt4czv6em2" class="animable"></path><path d="M216.65,370.7a38.27,38.27,0,0,0,12.4-8.37" style="fill: none; stroke: rgb(255, 255, 255); stroke-linecap: round; stroke-linejoin: round; stroke-width: 1.193px; transform-origin: 222.85px 366.515px;" id="el7kd51mntjqx" class="animable"></path><path d="M182.8,346.58s4,21.11,2,29.82-13.74,10.06-16.42,9.05-1.34-21.78-1.34-32.17S177.44,343.56,182.8,346.58Z" style="fill: rgb(117, 117, 117); stroke: rgb(38, 50, 56); stroke-linecap: round; stroke-linejoin: round; stroke-width: 1.193px; transform-origin: 176.033px 365.185px;" id="elnye0odq6x" class="animable"></path><path d="M97.34,290.27S95,304,96.67,310.72a28.62,28.62,0,0,0,4.69,10.39s-8.38,12.4-6.7,22.78,6,11.73,6,11.73-3.68,19.11,3,25.81,21.45,14.07,37.87,11.06,27.48-3.69,30.83-9.39,1.34-30.83,1.34-30.83-.67-27.81-1.34-44.91-3-30.83-11.06-37.53-43.57,3.69-54.29,10.72S97.34,290.27,97.34,290.27Z" style="fill: #00A7E6; transform-origin: 134.368px 330.426px;" id="elry8yxkw76qf" class="animable"></path><g style="clip-path: url(&quot;#freepik--clip-path-3--inject-15&quot;); transform-origin: 136.803px 330.426px;" id="elq6utyu74" class="animable"><g id="elyp9a6m1eywm"><path d="M99.73,290.27s-2.35,13.74-.67,20.45a28.43,28.43,0,0,0,4.69,10.39s-8.38,12.4-6.7,22.78,6,11.73,6,11.73-3.69,19.11,3,25.81S127.54,395.5,144,392.49s27.49-3.69,30.84-9.39,1.34-30.83,1.34-30.83-.67-27.81-1.34-44.91-3-30.83-11.06-37.53-43.57,3.69-54.29,10.72S99.73,290.27,99.73,290.27Z" style="opacity: 0.3; transform-origin: 136.803px 330.426px;" class="animable" id="elusabft3u0a9"></path></g></g><path d="M97.34,290.27S95,304,96.67,310.72a28.62,28.62,0,0,0,4.69,10.39s-8.38,12.4-6.7,22.78,6,11.73,6,11.73-3.68,19.11,3,25.81,21.45,14.07,37.87,11.06,27.48-3.69,30.83-9.39,1.34-30.83,1.34-30.83-.67-27.81-1.34-44.91-3-30.83-11.06-37.53-43.57,3.69-54.29,10.72S97.34,290.27,97.34,290.27Z" style="fill: none; stroke: rgb(38, 50, 56); stroke-linecap: round; stroke-linejoin: round; stroke-width: 1.193px; transform-origin: 134.368px 330.426px;" id="elg3lya435b7" class="animable"></path><path d="M101.36,321.11a40.77,40.77,0,0,0,35.86,5" style="fill: none; stroke: rgb(38, 50, 56); stroke-linecap: round; stroke-linejoin: round; stroke-width: 1.193px; transform-origin: 119.29px 324.655px;" id="el8zv2qvaocfw" class="animable"></path><path d="M100.69,355.62s17.09,16.76,45.25.67" style="fill: none; stroke: rgb(38, 50, 56); stroke-linecap: round; stroke-linejoin: round; stroke-width: 1.193px; transform-origin: 123.315px 359.446px;" id="elbpcpq7egz74" class="animable"></path><path d="M167.38,273.85s-6.36-9.72-15.08-15.08-31.16-9.38-40.21-11.06-18.77-1-21.45,9-2.35,26.81.33,34.18,13.74,11.73,22.46,6.71,32.84-24.47,41.22-25.47S166.71,277.54,167.38,273.85Z" style="fill: rgb(117, 117, 117); transform-origin: 128.084px 273.379px;" id="elukuc9wkjilh" class="animable"></path><g style="clip-path: url(&quot;#freepik--clip-path-4--inject-15&quot;); transform-origin: 120.171px 274.303px;" id="el4ae900qe1z" class="animable"><g id="elhw9ooupb5vw"><path d="M148.79,272c5.11-2.13-7.67,1.7-8.52.42s8.94-7.66,11.07-8.51-12.35,2.13-11.92,0,14.05-2.56,4.68-4.69-40-7.67-46-9.8a4.94,4.94,0,0,1-1.29-.64,11.92,11.92,0,0,0-6.17,8c-2.68,10.05-2.35,26.81.33,34.18,2.34,6.42,11,10.55,19,8.2,3.69-3,7.1-6.94,12.87-10.57C134.31,281.33,143.68,274.09,148.79,272Z" style="opacity: 0.3; transform-origin: 120.171px 274.303px;" class="animable" id="elf09vw4yn4i"></path></g></g><path d="M167.38,273.85s-6.36-9.72-15.08-15.08-31.16-9.38-40.21-11.06-18.77-1-21.45,9-2.35,26.81.33,34.18,13.74,11.73,22.46,6.71,32.84-24.47,41.22-25.47S166.71,277.54,167.38,273.85Z" style="fill: none; stroke: rgb(38, 50, 56); stroke-linecap: round; stroke-linejoin: round; stroke-width: 1.193px; transform-origin: 128.084px 273.379px;" id="elkb7k7vurdy" class="animable"></path><path d="M203.58,319.43s7.71,1,12.73,3,8.38,14.41,6.37,16.08-6-.33-6-.33a49.07,49.07,0,0,1-9.72,2.34C202.91,340.88,198.55,321.78,203.58,319.43Z" style="fill: #00A7E6; stroke: rgb(38, 50, 56); stroke-linecap: round; stroke-linejoin: round; stroke-width: 1.193px; transform-origin: 212.295px 329.978px;" id="elooip0vo2rsn" class="animable"></path><path d="M178.11,318.42s1.34,0,8.71-3.35,13.41-3.35,18.1,4,6.7,16.43,4,21.79-12.73,9.05-18.1,9.05-6-7-6-7-.67-11.06-4-15.08S176.77,319.43,178.11,318.42Z" style="fill: rgb(117, 117, 117); stroke: rgb(38, 50, 56); stroke-linecap: round; stroke-linejoin: round; stroke-width: 1.193px; transform-origin: 193.804px 331.412px;" id="el2r1j0a91ls4" class="animable"></path><path d="M153.31,273.85c7.37-2.68,16.76-1,20.11,8.38s6.36,36.86,6.36,36.86,8.38,1,11.73,4.7,5,13.07,4.36,17.76-12.4,13.4-25.8,13.74-23.13-6-27.82-23.13S139.42,289,139.42,289s1.7-7.67,4.26-9.38" style="fill: #00A7E6; transform-origin: 167.531px 314px;" id="el2brjkrdekm6" class="animable"></path><g style="clip-path: url(&quot;#freepik--clip-path-5--inject-15&quot;); transform-origin: 167.578px 322.846px;" id="elrdck9i122xn" class="animable"><g id="elr3u9883x0ui"><path d="M195.87,341.55c.67-4.69-1-14.08-4.36-17.76-.13-.15-.29-.29-.43-.43a85.25,85.25,0,0,1,.72,9.08c.67,19.67-26.82,16.38-32.36,2.13-3-7.67-3.84-41.32-12.78-43.87-5.16-1.47-6.92,2.57-7.48,6.26-.18,9.65.14,24.52,3.07,35.2,4.69,17.1,14.41,23.46,27.82,23.13S195.2,346.24,195.87,341.55Z" style="opacity: 0.3; transform-origin: 167.578px 322.846px;" class="animable" id="el86ou9jaxgw"></path></g></g><path d="M153.31,273.85c7.37-2.68,16.76-1,20.11,8.38s6.36,36.86,6.36,36.86,8.38,1,11.73,4.7,5,13.07,4.36,17.76-12.4,13.4-25.8,13.74-23.13-6-27.82-23.13S139.42,289,139.42,289s1.7-7.67,4.26-9.38" style="fill: none; stroke: rgb(38, 50, 56); stroke-linecap: round; stroke-linejoin: round; stroke-width: 1.193px; transform-origin: 167.531px 314px;" id="elq8rs56uedqa" class="animable"></path><path d="M179.78,319.09S182.4,331.3,168.94,338" style="fill: none; stroke: rgb(38, 50, 56); stroke-linecap: round; stroke-linejoin: round; stroke-width: 1.193px; transform-origin: 174.463px 328.545px;" id="el4qs3pfv911p" class="animable"></path></g><g id="freepik--Text--inject-15" class="animable" style="transform-origin: 247.09px 221.265px;"><path d="M113.1,106.25c0-2.78,1.28-4.83,4.17-4.83s4.23,2,4.23,4.83V116c0,2.78-1.29,4.83-4.23,4.83s-4.17-2-4.17-4.83Zm1.25,9.84c0,2.08.82,3.6,2.92,3.6s3-1.52,3-3.6v-9.92c0-2.07-.84-3.6-3-3.6s-2.92,1.53-2.92,3.6Z" style="fill: rgb(38, 50, 56); transform-origin: 117.3px 111.125px;" id="ellsfufu2auka" class="animable"></path><path d="M123.49,106.25c0-2.78,1.28-4.83,4.17-4.83s4.23,2,4.23,4.83V116c0,2.78-1.28,4.83-4.23,4.83s-4.17-2-4.17-4.83Zm1.25,9.84c0,2.08.82,3.6,2.92,3.6s3-1.52,3-3.6v-9.92c0-2.07-.84-3.6-3-3.6s-2.92,1.53-2.92,3.6Z" style="fill: rgb(38, 50, 56); transform-origin: 127.69px 111.125px;" id="el7u58bvlqanr" class="animable"></path><path d="M137.92,101.59c2.94,0,4.09,1.85,4.09,4.63v2.08c0,3-1.4,4.52-4.42,4.52h-2.37v7.86H134V101.59Zm-.33,10.09c2.21,0,3.16-1,3.16-3.3v-2.24c0-2.07-.71-3.41-2.83-3.41h-2.7v9Z" style="fill: rgb(38, 50, 56); transform-origin: 138.005px 111.135px;" id="elssxbdnzsyx" class="animable"></path><path d="M151.93,106.2v.4h-1.2v-.49c0-2-.76-3.54-2.83-3.54s-2.84,1.5-2.84,3.52c0,4.63,6.9,4.71,6.9,10,0,2.75-1.2,4.77-4.12,4.77s-4.11-2-4.11-4.77v-1h1.2v1.06c0,2,.79,3.52,2.89,3.52s2.89-1.48,2.89-3.52c0-4.58-6.9-4.66-6.9-10,0-2.86,1.25-4.72,4.06-4.75S151.93,103.44,151.93,106.2Z" style="fill: rgb(38, 50, 56); transform-origin: 147.845px 111.13px;" id="elj7n6vwzolel" class="animable"></path><path d="M155.07,118.28v2.4h-1.22v-2.4Z" style="fill: rgb(38, 50, 56); transform-origin: 154.46px 119.48px;" id="eldfduzyjwh9d" class="animable"></path><path d="M158.48,118.28v2.4h-1.22v-2.4Z" style="fill: rgb(38, 50, 56); transform-origin: 157.87px 119.48px;" id="elrvbulwua7d" class="animable"></path><path d="M161.89,118.28v2.4h-1.23v-2.4Z" style="fill: rgb(38, 50, 56); transform-origin: 161.275px 119.48px;" id="elflxfkwiazra" class="animable"></path><path d="M117.13,129.36c3,0,4.09,1.85,4.09,4.64v2.07c0,3-1.39,4.53-4.41,4.53h-2.38v7.85h-1.25V129.36Zm-.32,10.09c2.2,0,3.16-1,3.16-3.3v-2.24c0-2.07-.71-3.4-2.84-3.4h-2.7v8.94Z" style="fill: rgb(38, 50, 56); transform-origin: 117.2px 138.905px;" id="elindj04qmh6q" class="animable"></path><path d="M124.58,144.22l-1,4.23h-1.15l4.17-19.12h1.83l4.25,19.12h-1.25l-1-4.23Zm.19-1.09h5.56l-2.81-12.35Z" style="fill: rgb(38, 50, 56); transform-origin: 127.555px 138.89px;" id="el8id0l2j16xn" class="animable"></path><path d="M142.77,134v1.42h-1.2v-1.5c0-2-.79-3.6-2.89-3.6s-2.89,1.56-2.89,3.6v9.93c0,2,.79,3.57,2.89,3.57s2.89-1.53,2.89-3.57v-4.12H139v-1.14h3.73v5.18c0,2.75-1.2,4.82-4.12,4.82s-4.11-2.07-4.11-4.82V134c0-2.75,1.2-4.82,4.11-4.82S142.77,131.27,142.77,134Z" style="fill: rgb(38, 50, 56); transform-origin: 138.635px 138.885px;" id="el5aama6b873" class="animable"></path><path d="M151.34,138.2v1.14h-5.21v8h6.27v1.15h-7.53V129.36h7.53v1.15h-6.27v7.69Z" style="fill: rgb(38, 50, 56); transform-origin: 148.635px 138.925px;" id="el84ttnszckyr" class="animable"></path><path d="M159.82,148.45h-1.15V129.36h1.64L166,145.48V129.36h1.14v19.09h-1.39l-6-17Z" style="fill: rgb(38, 50, 56); transform-origin: 162.905px 138.905px;" id="elyi1jb78zqmd" class="animable"></path><path d="M169.26,134c0-2.78,1.28-4.82,4.17-4.82s4.23,2,4.23,4.82v9.77c0,2.78-1.29,4.82-4.23,4.82s-4.17-2-4.17-4.82Zm1.25,9.85c0,2.07.82,3.6,2.92,3.6s3-1.53,3-3.6v-9.93c0-2.07-.84-3.6-3-3.6s-2.92,1.53-2.92,3.6Z" style="fill: rgb(38, 50, 56); transform-origin: 173.46px 138.885px;" id="elcotl9mjtqui" class="animable"></path><path d="M183,148.45V130.51h-3.87v-1.15h9v1.15h-3.9v17.94Z" style="fill: rgb(38, 50, 56); transform-origin: 183.63px 138.905px;" id="eltd7p24q6dap" class="animable"></path><path d="M200.08,138.66v1.14h-4.94v8.65h-1.25V129.36h7.25v1.15h-6v8.15Z" style="fill: rgb(38, 50, 56); transform-origin: 197.515px 138.905px;" id="eleipj1lmk78" class="animable"></path><path d="M203,134c0-2.78,1.28-4.82,4.17-4.82s4.23,2,4.23,4.82v9.77c0,2.78-1.28,4.82-4.23,4.82s-4.17-2-4.17-4.82Zm1.25,9.85c0,2.07.82,3.6,2.92,3.6s3-1.53,3-3.6v-9.93c0-2.07-.84-3.6-3-3.6s-2.92,1.53-2.92,3.6Z" style="fill: rgb(38, 50, 56); transform-origin: 207.2px 138.885px;" id="eljjt98agwaxc" class="animable"></path><path d="M214.64,143.84c0,2,.77,3.63,2.87,3.63s2.86-1.58,2.86-3.63V129.36h1.17v14.43c0,2.72-1.14,4.82-4.06,4.82s-4.09-2.1-4.09-4.82V129.36h1.25Z" style="fill: rgb(38, 50, 56); transform-origin: 217.465px 138.985px;" id="elwu86hzi3xve" class="animable"></path><path d="M224.84,148.45H223.7V129.36h1.63l5.73,16.12V129.36h1.15v19.09h-1.4l-6-17Z" style="fill: rgb(38, 50, 56); transform-origin: 227.955px 138.905px;" id="eleldskksoh3b" class="animable"></path><path d="M238.56,129.36c2.95,0,4.23,1.94,4.23,4.75v9.59c0,2.81-1.28,4.75-4.23,4.75h-4.2V129.36Zm0,17.94c2.13,0,3-1.44,3-3.54v-9.71c0-2.1-.9-3.54-3-3.54h-2.91V147.3Z" style="fill: rgb(38, 50, 56); transform-origin: 238.575px 138.905px;" id="el5mxzdn2gucq" class="animable"></path><path d="M302,325.13,315.61,293h8.15v32.13h3.53v6.79h-3.53v8.63h-7.34v-8.63H302Zm14.4,0V307.27l-7.54,17.86Z" style="fill: rgb(38, 50, 56); transform-origin: 314.645px 316.775px;" id="el1mna6fwsb5" class="animable"></path><path d="M330.08,304.41c0-7.6,4-12,11.34-12s11.34,4.35,11.34,12v24.72c0,7.61-4,12-11.34,12s-11.34-4.35-11.34-12Zm7.47,25.2c0,3.4,1.49,4.69,3.87,4.69s3.87-1.29,3.87-4.69V303.94c0-3.4-1.5-4.69-3.87-4.69s-3.87,1.29-3.87,4.69Z" style="fill: rgb(38, 50, 56); transform-origin: 341.42px 316.77px;" id="elmmdhhwa07i" class="animable"></path><path d="M355.82,325.13,369.4,293h8.15v32.13h3.53v6.79h-3.53v8.63h-7.34v-8.63H355.82Zm14.39,0V307.27l-7.53,17.86Z" style="fill: rgb(38, 50, 56); transform-origin: 368.45px 316.775px;" id="el049ck6j1m7wy" class="animable"></path></g><defs><clipPath id="freepik--clip-path--inject-15"><path d="M86.28,404.22v22.52A4.84,4.84,0,0,0,88.9,431l36.2,18.69a4.81,4.81,0,0,0,4.19.12l53.33-20.33a4.84,4.84,0,0,0,2.86-4.41V397.85l-61,18.43Z" style="fill:#92E3A9;stroke:#263238;stroke-linecap:round;stroke-linejoin:round;stroke-width:1.1930027515339008px"></path></clipPath><clipPath id="freepik--clip-path-2--inject-15"><path d="M142,366.2,83.5,385a2.26,2.26,0,0,0-1.57,2.16v16.68a2.27,2.27,0,0,0,1.29,2L124,425.25a2.27,2.27,0,0,0,1.77.08L187,402.42a2.27,2.27,0,0,0,1.48-2.12l.11-15.65a2.29,2.29,0,0,0-1.79-2.22l-43.64-16.29A2.36,2.36,0,0,0,142,366.2Z" style="fill:#fff;stroke:#263238;stroke-linecap:round;stroke-linejoin:round;stroke-width:1.1930027515339008px"></path></clipPath><clipPath id="freepik--clip-path-3--inject-15"><path d="M97.34,290.27S95,304,96.67,310.72a28.62,28.62,0,0,0,4.69,10.39s-8.38,12.4-6.7,22.78,6,11.73,6,11.73-3.68,19.11,3,25.81,21.45,14.07,37.87,11.06,27.48-3.69,30.83-9.39,1.34-30.83,1.34-30.83-.67-27.81-1.34-44.91-3-30.83-11.06-37.53-43.57,3.69-54.29,10.72S97.34,290.27,97.34,290.27Z" style="fill:#92E3A9;stroke:#263238;stroke-linecap:round;stroke-linejoin:round;stroke-width:1.1930027515339008px"></path></clipPath><clipPath id="freepik--clip-path-4--inject-15"><path d="M167.38,273.85s-6.36-9.72-15.08-15.08-31.16-9.38-40.21-11.06-18.77-1-21.45,9-2.35,26.81.33,34.18,13.74,11.73,22.46,6.71,32.84-24.47,41.22-25.47S166.71,277.54,167.38,273.85Z" style="fill:#757575;stroke:#263238;stroke-linecap:round;stroke-linejoin:round;stroke-width:1.1930027515339008px"></path></clipPath><clipPath id="freepik--clip-path-5--inject-15"><path d="M153.31,273.85c7.37-2.68,16.76-1,20.11,8.38s6.36,36.86,6.36,36.86,8.38,1,11.73,4.7,5,13.07,4.36,17.76-12.4,13.4-25.8,13.74-23.13-6-27.82-23.13S139.42,289,139.42,289s1.7-7.67,4.26-9.38" style="fill:#92E3A9;stroke:#263238;stroke-linecap:round;stroke-linejoin:round;stroke-width:1.1930027515339008px"></path></clipPath></defs><defs>     <filter id="active" height="200%">         <feMorphology in="SourceAlpha" result="DILATED" operator="dilate" radius="2"></feMorphology>                <feFlood flood-color="#32DFEC" flood-opacity="1" result="PINK"></feFlood>        <feComposite in="PINK" in2="DILATED" operator="in" result="OUTLINE"></feComposite>        <feMerge>            <feMergeNode in="OUTLINE"></feMergeNode>            <feMergeNode in="SourceGraphic"></feMergeNode>        </feMerge>    </filter>    <filter id="hover" height="200%">        <feMorphology in="SourceAlpha" result="DILATED" operator="dilate" radius="2"></feMorphology>                <feFlood flood-color="#ff0000" flood-opacity="0.5" result="PINK"></feFlood>        <feComposite in="PINK" in2="DILATED" operator="in" result="OUTLINE"></feComposite>        <feMerge>            <feMergeNode in="OUTLINE"></feMergeNode>            <feMergeNode in="SourceGraphic"></feMergeNode>        </feMerge>            <feColorMatrix type="matrix" values="0   0   0   0   0                0   1   0   0   0                0   0   0   0   0                0   0   0   1   0 "></feColorMatrix>    </filter></defs></svg>
